<!-- Generated by IcoMoon.io -->
<svg version="1.1" xmlns="http://www.w3.org/2000/svg" width="87" height="32" viewBox="0 0 87 32">
<title>Group-69</title>
<path fill="#fafafa" d="M6.937 15.656l-1.651 1.812v4.403h-4.024v-16.694h4.024v7.361l1.399-2.121 3.6-5.24h4.976l-5.641 7.384 5.641 9.31h-4.77l-3.554-6.214zM23.092 21.87c-0.138-0.252-0.26-0.623-0.367-1.112-0.711 0.894-1.705 1.341-2.981 1.341-1.17 0-2.163-0.352-2.981-1.055-0.818-0.711-1.227-1.601-1.227-2.672 0-1.345 0.497-2.362 1.491-3.050s2.438-1.032 4.334-1.032h1.192v-0.654c0-1.139-0.493-1.708-1.479-1.708-0.917 0-1.376 0.451-1.376 1.353h-3.864c0-1.2 0.508-2.175 1.525-2.924 1.024-0.749 2.328-1.124 3.91-1.124s2.832 0.386 3.749 1.158c0.917 0.772 1.387 1.831 1.41 3.176v5.492c0.015 1.139 0.191 2.010 0.527 2.614v0.195h-3.864zM20.673 19.348c0.482 0 0.879-0.103 1.192-0.31 0.321-0.206 0.55-0.439 0.688-0.699v-1.984h-1.124c-1.345 0-2.018 0.604-2.018 1.812 0 0.352 0.119 0.638 0.355 0.86 0.237 0.214 0.539 0.321 0.906 0.321zM40.096 15.759c0 1.926-0.436 3.466-1.307 4.621-0.864 1.147-2.033 1.72-3.508 1.72-1.139 0-2.075-0.417-2.809-1.25v5.79h-3.864v-17.176h3.612l0.115 1.147c0.742-0.917 1.716-1.376 2.924-1.376 1.529 0 2.717 0.566 3.566 1.697 0.848 1.124 1.273 2.672 1.273 4.644v0.183zM36.232 15.518c0-2.201-0.642-3.302-1.926-3.302-0.917 0-1.529 0.329-1.835 0.986v4.884c0.336 0.688 0.955 1.032 1.857 1.032 1.231 0 1.865-1.063 1.903-3.188v-0.413zM49.2 20.529c-0.818 1.047-1.923 1.571-3.314 1.571-1.361 0-2.392-0.394-3.096-1.181-0.695-0.795-1.043-1.934-1.043-3.417v-8.038h3.864v8.060c0 1.063 0.516 1.594 1.548 1.594 0.887 0 1.517-0.317 1.892-0.952v-8.703h3.887v12.406h-3.623l-0.115-1.341zM61.56 18.385c0-0.329-0.172-0.592-0.516-0.791s-0.998-0.405-1.961-0.619c-0.963-0.214-1.758-0.493-2.385-0.837-0.627-0.352-1.105-0.776-1.433-1.273s-0.493-1.066-0.493-1.708c0-1.139 0.47-2.075 1.41-2.809 0.94-0.741 2.171-1.112 3.692-1.112 1.636 0 2.95 0.371 3.944 1.112s1.491 1.716 1.491 2.924h-3.875c0-0.994-0.524-1.491-1.571-1.491-0.405 0-0.745 0.115-1.020 0.344-0.275 0.222-0.413 0.501-0.413 0.837 0 0.344 0.168 0.623 0.504 0.837s0.871 0.39 1.605 0.527c0.741 0.138 1.391 0.302 1.949 0.493 1.865 0.642 2.798 1.792 2.798 3.451 0 1.131-0.505 2.052-1.513 2.763-1.001 0.711-2.301 1.066-3.898 1.066-1.062 0-2.010-0.191-2.843-0.573s-1.483-0.902-1.949-1.559c-0.466-0.657-0.699-1.349-0.699-2.075h3.612c0.015 0.573 0.206 0.994 0.573 1.261 0.367 0.26 0.837 0.39 1.41 0.39 0.527 0 0.921-0.107 1.181-0.321 0.267-0.214 0.401-0.493 0.401-0.837zM71.604 6.38v3.084h2.041v2.683h-2.041v5.676c0 0.466 0.084 0.791 0.252 0.975s0.501 0.275 0.998 0.275c0.382 0 0.703-0.023 0.963-0.069v2.763c-0.696 0.222-1.422 0.332-2.179 0.332-1.33 0-2.312-0.313-2.947-0.94s-0.952-1.578-0.952-2.855v-6.157h-1.582v-2.683h1.582v-3.084h3.864zM82.164 21.87c-0.137-0.252-0.26-0.623-0.367-1.112-0.711 0.894-1.705 1.341-2.981 1.341-1.169 0-2.163-0.352-2.981-1.055-0.818-0.711-1.227-1.601-1.227-2.672 0-1.345 0.497-2.362 1.491-3.050s2.438-1.032 4.334-1.032h1.193v-0.654c0-1.139-0.493-1.708-1.479-1.708-0.917 0-1.376 0.451-1.376 1.353h-3.864c0-1.2 0.508-2.175 1.525-2.924 1.024-0.749 2.327-1.124 3.91-1.124s2.832 0.386 3.75 1.158c0.917 0.772 1.387 1.831 1.41 3.176v5.492c0.015 1.139 0.191 2.010 0.527 2.614v0.195h-3.864zM79.745 19.348c0.481 0 0.879-0.103 1.192-0.31 0.321-0.206 0.55-0.439 0.688-0.699v-1.984h-1.124c-1.345 0-2.018 0.604-2.018 1.812 0 0.352 0.119 0.638 0.355 0.86 0.237 0.214 0.539 0.321 0.906 0.321z"></path>
<path fill="#fafafa" d="M59.165 6.446h1.842v2.993h-1.842v-2.993z"></path>
<path fill="#fafafa" d="M59.165 21.87h1.842v2.993h-1.842v-2.993z"></path>
<path fill="#fff" d="M18.167 30.392c0-0.102-0.036-0.18-0.108-0.234-0.072-0.055-0.201-0.113-0.389-0.173-0.187-0.061-0.335-0.121-0.444-0.18-0.297-0.161-0.446-0.377-0.446-0.649 0-0.141 0.040-0.267 0.119-0.378 0.080-0.112 0.195-0.198 0.344-0.261 0.15-0.062 0.318-0.093 0.504-0.093 0.187 0 0.354 0.034 0.5 0.102 0.146 0.067 0.26 0.163 0.34 0.286 0.082 0.124 0.122 0.264 0.122 0.421h-0.54c0-0.12-0.038-0.213-0.113-0.279s-0.182-0.101-0.318-0.101c-0.132 0-0.234 0.028-0.308 0.084-0.073 0.055-0.11 0.128-0.11 0.219 0 0.085 0.043 0.157 0.128 0.214 0.086 0.058 0.213 0.111 0.38 0.162 0.307 0.092 0.531 0.207 0.671 0.343s0.21 0.307 0.21 0.511c0 0.227-0.086 0.405-0.257 0.534s-0.402 0.192-0.692 0.192c-0.201 0-0.385-0.037-0.55-0.11-0.165-0.074-0.292-0.176-0.38-0.304-0.086-0.128-0.13-0.277-0.13-0.446h0.541c0 0.289 0.173 0.433 0.518 0.433 0.128 0 0.228-0.026 0.3-0.077 0.072-0.053 0.108-0.126 0.108-0.219zM20.444 28.46l0.673 1.899 0.669-1.899h0.709v2.619h-0.541v-0.716l0.054-1.236-0.707 1.952h-0.37l-0.705-1.95 0.054 1.234v0.716h-0.54v-2.619h0.705zM25.139 30.54h-0.946l-0.18 0.54h-0.574l0.975-2.619h0.5l0.98 2.619h-0.574l-0.182-0.54zM24.339 30.103h0.655l-0.329-0.98-0.326 0.98zM27.771 30.121h-0.43v0.959h-0.54v-2.619h0.973c0.309 0 0.548 0.069 0.716 0.207s0.252 0.333 0.252 0.585c0 0.179-0.039 0.328-0.117 0.448-0.077 0.119-0.194 0.213-0.351 0.284l0.567 1.070v0.025h-0.579l-0.491-0.959zM27.342 29.684h0.435c0.135 0 0.24-0.034 0.315-0.103 0.074-0.070 0.111-0.165 0.111-0.286 0-0.123-0.035-0.221-0.106-0.291-0.070-0.071-0.177-0.106-0.322-0.106h-0.433v0.786zM31.699 28.897h-0.802v2.182h-0.54v-2.182h-0.791v-0.437h2.133v0.437zM35.719 30.009h-1.036v1.070h-0.54v-2.619h1.705v0.437h-1.165v0.676h1.036v0.435zM37.398 31.079h-0.54v-2.619h0.54v2.619zM40.693 31.079h-0.54l-1.050-1.723v1.723h-0.54v-2.619h0.54l1.052 1.727v-1.727h0.538v2.619zM43.338 30.54h-0.946l-0.18 0.54h-0.574l0.975-2.619h0.5l0.98 2.619h-0.574l-0.182-0.54zM42.537 30.103h0.654l-0.329-0.98-0.326 0.98zM47.13 31.079h-0.54l-1.050-1.723v1.723h-0.54v-2.619h0.54l1.052 1.727v-1.727h0.538v2.619zM50.32 30.207c-0.020 0.282-0.125 0.503-0.313 0.666-0.187 0.162-0.434 0.243-0.741 0.243-0.336 0-0.6-0.113-0.793-0.338-0.192-0.227-0.288-0.537-0.288-0.932v-0.16c0-0.252 0.044-0.474 0.133-0.665s0.215-0.339 0.38-0.441c0.165-0.103 0.357-0.155 0.576-0.155 0.302 0 0.545 0.081 0.73 0.243s0.291 0.389 0.32 0.682h-0.54c-0.013-0.169-0.061-0.291-0.142-0.367-0.080-0.077-0.203-0.115-0.369-0.115-0.18 0-0.315 0.065-0.405 0.194s-0.134 0.328-0.137 0.599v0.198c0 0.283 0.043 0.49 0.128 0.621 0.086 0.131 0.222 0.196 0.406 0.196 0.167 0 0.291-0.038 0.373-0.113 0.083-0.077 0.13-0.195 0.142-0.354h0.539zM52.913 29.944h-1.036v0.701h1.216v0.433h-1.755v-2.619h1.752v0.437h-1.212v0.624h1.036v0.423z"></path>
</svg>
