<!-- Generated by IcoMoon.io -->
<svg version="1.1" xmlns="http://www.w3.org/2000/svg" width="93" height="32" viewBox="0 0 93 32">
<title>logo</title>
<path fill="#fb7c2f" d="M14.452 5.161h17.548c4.561 0 8.258 3.697 8.258 8.258v10.323c0 4.561-3.697 8.258-8.258 8.258h-17.548c-4.561 0-8.258-3.697-8.258-8.258v-10.323c0-4.561 3.697-8.258 8.258-8.258z"></path>
<path fill="#fb7c2f" opacity="0.20000000298023224" d="M8.258 0h17.548c4.561 0 8.258 3.697 8.258 8.258v10.323c0 4.561-3.697 8.258-8.258 8.258h-17.548c-4.561 0-8.258-3.697-8.258-8.258v-10.323c0-4.561 3.697-8.258 8.258-8.258z"></path>
<path fill="#fff" d="M23.88 21.234v3.539h-3.235v-13.418h3.235v5.916l1.124-1.705 2.894-4.211h3.999l-4.534 5.935 4.534 7.483h-3.834l-2.857-4.995-1.327 1.456zM38.929 23.878c0.086 0.393 0.184 0.691 0.295 0.894h3.106v-0.157c-0.27-0.485-0.412-1.186-0.424-2.101v-4.414c-0.018-1.081-0.396-1.932-1.134-2.553s-1.742-0.931-3.013-0.931c-1.272 0-2.319 0.301-3.142 0.903-0.817 0.602-1.226 1.385-1.226 2.35h3.106c0-0.725 0.369-1.087 1.106-1.087 0.792 0 1.189 0.458 1.189 1.373v0.525h-0.958c-1.524 0-2.685 0.276-3.483 0.829s-1.198 1.37-1.198 2.451c0 0.86 0.329 1.576 0.986 2.147 0.657 0.565 1.456 0.848 2.396 0.848 1.026 0 1.825-0.359 2.396-1.078zM38.237 22.496c-0.252 0.166-0.571 0.249-0.958 0.249-0.295 0-0.538-0.086-0.728-0.258-0.19-0.178-0.286-0.409-0.286-0.691 0-0.971 0.541-1.456 1.622-1.456h0.903v1.594c-0.111 0.209-0.295 0.396-0.553 0.562zM52.89 19.861c0 1.548-0.35 2.786-1.051 3.714-0.694 0.922-1.634 1.382-2.82 1.382-0.915 0-1.668-0.335-2.258-1.005v4.654h-3.106v-13.805h2.903l0.092 0.922c0.596-0.737 1.379-1.106 2.35-1.106 1.229 0 2.184 0.455 2.866 1.364 0.682 0.903 1.023 2.147 1.023 3.732v0.148zM49.784 19.667c0-1.769-0.516-2.654-1.548-2.654-0.737 0-1.229 0.264-1.474 0.793v3.926c0.27 0.553 0.768 0.829 1.493 0.829 0.989 0 1.499-0.854 1.53-2.562v-0.332zM58.576 24.957c-1.094 0-1.923-0.316-2.488-0.949-0.559-0.639-0.839-1.554-0.839-2.746v-6.46h3.106v6.478c0 0.854 0.415 1.281 1.244 1.281 0.713 0 1.219-0.255 1.521-0.765v-6.994h3.124v9.971h-2.912l-0.092-1.078c-0.657 0.842-1.545 1.263-2.663 1.263zM71.173 21.971c0 0.276-0.107 0.501-0.323 0.673-0.209 0.172-0.525 0.258-0.949 0.258-0.461 0-0.839-0.104-1.133-0.313-0.295-0.215-0.449-0.553-0.461-1.014h-2.903c0 0.584 0.187 1.14 0.562 1.668s0.897 0.946 1.567 1.253c0.517 0.237 1.089 0.383 1.715 0.437v2.245h1.48v-2.274c0.876-0.106 1.618-0.375 2.223-0.804 0.811-0.571 1.216-1.312 1.216-2.221 0-1.333-0.75-2.258-2.249-2.774-0.448-0.154-0.971-0.286-1.567-0.396-0.59-0.111-1.020-0.252-1.29-0.424s-0.405-0.396-0.405-0.673c0-0.27 0.111-0.495 0.332-0.673 0.221-0.184 0.495-0.276 0.82-0.276 0.842 0 1.262 0.399 1.262 1.198h3.115c0-0.971-0.399-1.754-1.198-2.35-0.605-0.451-1.358-0.732-2.26-0.841v-2.294h-1.48v2.265c-0.964 0.080-1.763 0.371-2.397 0.871-0.756 0.59-1.134 1.342-1.134 2.258 0 0.516 0.132 0.974 0.396 1.373s0.648 0.74 1.152 1.023c0.504 0.276 1.143 0.501 1.917 0.673s1.299 0.338 1.576 0.498c0.276 0.16 0.415 0.372 0.415 0.636zM80.278 14.801h1.64v2.156h-1.64v4.562c0 0.375 0.067 0.636 0.203 0.783s0.402 0.221 0.802 0.221c0.307 0 0.565-0.018 0.774-0.055v2.221c-0.559 0.178-1.143 0.267-1.751 0.267-1.069 0-1.858-0.252-2.368-0.756s-0.765-1.269-0.765-2.295v-4.949h-1.272v-2.156h1.272v-2.479h3.106v2.479zM89.798 24.772c-0.111-0.203-0.209-0.501-0.295-0.894-0.571 0.719-1.37 1.078-2.396 1.078-0.94 0-1.739-0.283-2.396-0.848-0.657-0.571-0.986-1.287-0.986-2.147 0-1.081 0.399-1.898 1.198-2.451s1.96-0.829 3.483-0.829h0.958v-0.525c0-0.915-0.396-1.373-1.189-1.373-0.737 0-1.106 0.363-1.106 1.087h-3.106c0-0.965 0.408-1.748 1.226-2.35 0.823-0.602 1.871-0.903 3.142-0.903s2.276 0.31 3.013 0.931c0.737 0.62 1.115 1.471 1.133 2.553v4.414c0.012 0.915 0.154 1.616 0.424 2.101v0.157h-3.106zM87.853 22.745c0.387 0 0.706-0.083 0.958-0.249 0.258-0.166 0.442-0.353 0.553-0.562v-1.594h-0.903c-1.081 0-1.622 0.485-1.622 1.456 0 0.283 0.095 0.513 0.286 0.691 0.19 0.172 0.433 0.258 0.728 0.258z"></path>
</svg>
