<svg width="56" height="56" fill="none" xmlns="http://www.w3.org/2000/svg">
  <g clip-path="url(#a)" fill="#071F41">
    <path d="M37.99 16.97a1.093 1.093 0 1 0 0 2.186 1.093 1.093 0 0 0 0-2.187ZM18.117 36.842a1.093 1.093 0 1 0 0 2.187 1.093 1.093 0 0 0 0-2.187Z"/>
    <path d="M54.694 6.729a1.093 1.093 0 0 0-1.024.295l-4.534 4.57h-2.174l-2.393-2.48V6.91l4.47-4.536a1.093 1.093 0 0 0-.43-1.804A10.91 10.91 0 0 0 45.116 0c-3.562 0-6.799 1.661-8.88 4.558-1.947 2.71-2.547 6.034-1.687 9.213l-8.057 8.057L13.07 8.375v-2.64c0-.384-.202-.74-.531-.938L4.805.156A1.093 1.093 0 0 0 3.47.321L.376 3.413A1.095 1.095 0 0 0 .211 4.75l4.64 7.733c.198.33.554.531.938.531l2.64.001 13.423 13.453-8.026 8.026c-3.18-.86-6.504-.258-9.217 1.69C1.715 38.264.055 41.5.055 45.063c0 1.194.192 2.37.57 3.492a1.093 1.093 0 0 0 1.813.421l4.534-4.57h2.186l2.49 2.49v2.187l-4.57 4.534a1.094 1.094 0 0 0 .421 1.813c1.123.378 2.298.57 3.493.57 3.562 0 6.797-1.66 8.877-4.555 1.949-2.713 2.55-6.037 1.69-9.217l6.446-6.445 1.477 1.603-.678.678a1.094 1.094 0 0 0 1.547 1.547l.614-.614 13.854 15.049.031.032a6.561 6.561 0 0 0 9.282 0 6.573 6.573 0 0 0 0-9.281l-.035-.033-15.072-13.827.607-.607a1.093 1.093 0 1 0-1.547-1.547l-.673.674-1.607-1.475 6.477-6.477c.921.246 1.871.37 2.834.37 6.03 0 10.937-4.906 10.937-10.936 0-1.195-.192-2.37-.57-3.493-.121-.36-.42-.63-.79-.716Zm-45.038 4.42a1.083 1.083 0 0 0-.774-.31H6.41L2.527 4.356 4.412 2.47l6.47 3.883v2.474c0 .29.115.567.32.772l13.744 13.775-1.547 1.547L9.656 11.149Zm27.821 21.335L52.6 46.358a4.375 4.375 0 0 1-6.189 6.187L32.514 37.448l4.964-4.964Zm-1.613-1.48-4.834 4.833-1.477-1.604 4.704-4.704 1.607 1.475Zm9.252-11.317a8.74 8.74 0 0 1-2.795-.456 1.096 1.096 0 0 0-1.123.263L19.55 41.144a1.093 1.093 0 0 0-.263 1.122c.91 2.7.474 5.58-1.194 7.902a8.65 8.65 0 0 1-7.1 3.643c-.32 0-.639-.017-.954-.05l3.474-3.448c.207-.205.323-.484.323-.776v-3.094c0-.29-.115-.569-.32-.774l-3.131-3.131a1.094 1.094 0 0 0-.774-.32H6.516c-.291 0-.57.116-.776.323l-3.447 3.474a8.848 8.848 0 0 1-.051-.954 8.648 8.648 0 0 1 3.643-7.1c2.322-1.668 5.202-2.103 7.902-1.194.394.133.829.031 1.123-.263l21.649-21.649c.294-.294.395-.728.263-1.122-.91-2.7-.476-5.579 1.191-7.9a8.651 8.651 0 0 1 7.102-3.645c.33 0 .658.018.983.054l-3.402 3.452c-.202.205-.314.48-.314.768v3.094c0 .284.11.556.306.76l3.022 3.13c.206.215.49.335.787.335h3.094c.292 0 .571-.116.777-.324l3.446-3.473c.034.315.051.634.051.954 0 4.824-3.925 8.75-8.75 8.75Z"/>
    <path d="M34.124 20.382 20.437 34.07a1.094 1.094 0 0 0 1.547 1.547l13.687-13.687a1.093 1.093 0 1 0-1.547-1.547ZM47.945 49.438a1.094 1.094 0 0 0 1.545-1.55l-9.86-9.827a1.094 1.094 0 0 0-1.544 1.55l9.86 9.827Z"/>
  </g>
  <defs>
    <clipPath id="a">
      <path fill="#fff" d="M0 0h55.891v56H0z"/>
    </clipPath>
  </defs>
</svg>
